<mxfile host="app.diagrams.net" agent="Mozilla/5.0 (Windows NT 10.0; Win64; x64) AppleWebKit/537.36 (KHTML, like Gecko) Chrome/135.0.0.0 Safari/537.36" version="26.1.3">
  <diagram name="第 1 页" id="2C3zUtz4Onn53_GNh0Rn">
    <mxGraphModel dx="922" dy="616" grid="1" gridSize="10" guides="1" tooltips="1" connect="1" arrows="1" fold="1" page="1" pageScale="1" pageWidth="827" pageHeight="1169" math="0" shadow="0">
      <root>
        <mxCell id="0" />
        <mxCell id="1" parent="0" />
        <mxCell id="HYNrUmtqzF9IMo-W-l-u-26" value="" style="endArrow=none;dashed=1;html=1;rounded=0;entryX=0.5;entryY=1;entryDx=0;entryDy=0;strokeWidth=2;" edge="1" parent="1" source="HYNrUmtqzF9IMo-W-l-u-39">
          <mxGeometry width="50" height="50" relative="1" as="geometry">
            <mxPoint x="660" y="760" as="sourcePoint" />
            <mxPoint x="659.5" y="200" as="targetPoint" />
          </mxGeometry>
        </mxCell>
        <mxCell id="HYNrUmtqzF9IMo-W-l-u-25" value="" style="endArrow=none;dashed=1;html=1;rounded=0;entryX=0.5;entryY=1;entryDx=0;entryDy=0;strokeWidth=2;" edge="1" parent="1">
          <mxGeometry width="50" height="50" relative="1" as="geometry">
            <mxPoint x="379" y="830" as="sourcePoint" />
            <mxPoint x="379" y="200" as="targetPoint" />
          </mxGeometry>
        </mxCell>
        <mxCell id="HYNrUmtqzF9IMo-W-l-u-1" value="&lt;font style=&quot;font-size: 14px;&quot;&gt;用户浏览器&lt;/font&gt;" style="rounded=0;whiteSpace=wrap;html=1;" vertex="1" parent="1">
          <mxGeometry x="40" y="170" width="120" height="30" as="geometry" />
        </mxCell>
        <mxCell id="HYNrUmtqzF9IMo-W-l-u-2" value="&lt;font style=&quot;font-size: 14px;&quot;&gt;三方系统&lt;/font&gt;" style="rounded=0;whiteSpace=wrap;html=1;" vertex="1" parent="1">
          <mxGeometry x="320" y="170" width="120" height="30" as="geometry" />
        </mxCell>
        <mxCell id="HYNrUmtqzF9IMo-W-l-u-3" value="&lt;font style=&quot;font-size: 14px;&quot;&gt;运维管理系统&lt;/font&gt;" style="rounded=0;whiteSpace=wrap;html=1;" vertex="1" parent="1">
          <mxGeometry x="600" y="170" width="120" height="30" as="geometry" />
        </mxCell>
        <mxCell id="HYNrUmtqzF9IMo-W-l-u-4" value="" style="endArrow=none;dashed=1;html=1;rounded=0;entryX=0.5;entryY=1;entryDx=0;entryDy=0;strokeWidth=2;" edge="1" parent="1" target="HYNrUmtqzF9IMo-W-l-u-1">
          <mxGeometry width="50" height="50" relative="1" as="geometry">
            <mxPoint x="100" y="820" as="sourcePoint" />
            <mxPoint x="100" y="220" as="targetPoint" />
          </mxGeometry>
        </mxCell>
        <mxCell id="HYNrUmtqzF9IMo-W-l-u-5" value="" style="rounded=1;whiteSpace=wrap;html=1;" vertex="1" parent="1">
          <mxGeometry x="365" y="260" width="30" height="110" as="geometry" />
        </mxCell>
        <mxCell id="HYNrUmtqzF9IMo-W-l-u-7" value="" style="endArrow=classic;html=1;rounded=0;entryX=0;entryY=0;entryDx=0;entryDy=0;endSize=8;" edge="1" parent="1" target="HYNrUmtqzF9IMo-W-l-u-5">
          <mxGeometry width="50" height="50" relative="1" as="geometry">
            <mxPoint x="100" y="260" as="sourcePoint" />
            <mxPoint x="250" y="260" as="targetPoint" />
          </mxGeometry>
        </mxCell>
        <mxCell id="HYNrUmtqzF9IMo-W-l-u-8" value="&lt;font style=&quot;font-size: 14px;&quot;&gt;访问()&lt;/font&gt;" style="text;html=1;align=center;verticalAlign=middle;whiteSpace=wrap;rounded=0;" vertex="1" parent="1">
          <mxGeometry x="210" y="230" width="60" height="30" as="geometry" />
        </mxCell>
        <mxCell id="HYNrUmtqzF9IMo-W-l-u-9" value="" style="endArrow=classic;html=1;rounded=0;exitX=1;exitY=0.25;exitDx=0;exitDy=0;entryX=1;entryY=0.5;entryDx=0;entryDy=0;" edge="1" parent="1">
          <mxGeometry width="50" height="50" relative="1" as="geometry">
            <mxPoint x="395" y="290" as="sourcePoint" />
            <mxPoint x="395" y="310" as="targetPoint" />
            <Array as="points">
              <mxPoint x="435" y="290" />
              <mxPoint x="435" y="310" />
            </Array>
          </mxGeometry>
        </mxCell>
        <mxCell id="HYNrUmtqzF9IMo-W-l-u-11" value="&lt;font style=&quot;font-size: 14px;&quot;&gt;验证未登录()&lt;/font&gt;" style="text;html=1;align=center;verticalAlign=middle;whiteSpace=wrap;rounded=0;" vertex="1" parent="1">
          <mxGeometry x="435" y="287.5" width="90" height="25" as="geometry" />
        </mxCell>
        <mxCell id="HYNrUmtqzF9IMo-W-l-u-17" value="" style="endArrow=none;dashed=1;html=1;dashPattern=1 3;strokeWidth=2;rounded=0;startArrow=open;startFill=0;" edge="1" parent="1">
          <mxGeometry width="50" height="50" relative="1" as="geometry">
            <mxPoint x="100" y="369" as="sourcePoint" />
            <mxPoint x="360" y="369" as="targetPoint" />
          </mxGeometry>
        </mxCell>
        <mxCell id="HYNrUmtqzF9IMo-W-l-u-19" value="&lt;span style=&quot;font-size: 14px;&quot;&gt;登录页面&lt;/span&gt;" style="text;html=1;align=center;verticalAlign=middle;whiteSpace=wrap;rounded=0;" vertex="1" parent="1">
          <mxGeometry x="210" y="344" width="90" height="25" as="geometry" />
        </mxCell>
        <mxCell id="HYNrUmtqzF9IMo-W-l-u-20" value="" style="rounded=1;whiteSpace=wrap;html=1;" vertex="1" parent="1">
          <mxGeometry x="645" y="428" width="30" height="90" as="geometry" />
        </mxCell>
        <mxCell id="HYNrUmtqzF9IMo-W-l-u-21" value="" style="endArrow=classic;html=1;rounded=0;entryX=0;entryY=0;entryDx=0;entryDy=0;endSize=8;" edge="1" parent="1" target="HYNrUmtqzF9IMo-W-l-u-20">
          <mxGeometry width="50" height="50" relative="1" as="geometry">
            <mxPoint x="100" y="428" as="sourcePoint" />
            <mxPoint x="365" y="428" as="targetPoint" />
          </mxGeometry>
        </mxCell>
        <mxCell id="HYNrUmtqzF9IMo-W-l-u-22" value="&lt;span style=&quot;font-size: 14px;&quot;&gt;登录（用户名、密码 .......）&lt;/span&gt;" style="text;html=1;align=center;verticalAlign=middle;whiteSpace=wrap;rounded=0;" vertex="1" parent="1">
          <mxGeometry x="395" y="403" width="170" height="25" as="geometry" />
        </mxCell>
        <mxCell id="HYNrUmtqzF9IMo-W-l-u-23" value="" style="endArrow=classic;html=1;rounded=0;exitX=1;exitY=0.25;exitDx=0;exitDy=0;entryX=1;entryY=0.5;entryDx=0;entryDy=0;" edge="1" parent="1">
          <mxGeometry width="50" height="50" relative="1" as="geometry">
            <mxPoint x="675" y="440.5" as="sourcePoint" />
            <mxPoint x="675" y="460.5" as="targetPoint" />
            <Array as="points">
              <mxPoint x="715" y="440.5" />
              <mxPoint x="715" y="460.5" />
            </Array>
          </mxGeometry>
        </mxCell>
        <mxCell id="HYNrUmtqzF9IMo-W-l-u-24" value="&lt;font style=&quot;font-size: 14px;&quot;&gt;验证成功&lt;/font&gt;" style="text;html=1;align=center;verticalAlign=middle;whiteSpace=wrap;rounded=0;" vertex="1" parent="1">
          <mxGeometry x="715" y="438" width="90" height="25" as="geometry" />
        </mxCell>
        <mxCell id="HYNrUmtqzF9IMo-W-l-u-27" value="" style="endArrow=classic;html=1;rounded=0;exitX=1;exitY=0.25;exitDx=0;exitDy=0;entryX=1;entryY=0.5;entryDx=0;entryDy=0;" edge="1" parent="1">
          <mxGeometry width="50" height="50" relative="1" as="geometry">
            <mxPoint x="675" y="480.5" as="sourcePoint" />
            <mxPoint x="675" y="500.5" as="targetPoint" />
            <Array as="points">
              <mxPoint x="715" y="480.5" />
              <mxPoint x="715" y="500.5" />
            </Array>
          </mxGeometry>
        </mxCell>
        <mxCell id="HYNrUmtqzF9IMo-W-l-u-28" value="&lt;font style=&quot;font-size: 14px;&quot;&gt;验证clientId&lt;/font&gt;" style="text;html=1;align=center;verticalAlign=middle;whiteSpace=wrap;rounded=0;" vertex="1" parent="1">
          <mxGeometry x="715" y="478" width="90" height="25" as="geometry" />
        </mxCell>
        <mxCell id="HYNrUmtqzF9IMo-W-l-u-29" value="" style="endArrow=classic;html=1;rounded=0;endSize=8;exitX=0;exitY=0.833;exitDx=0;exitDy=0;exitPerimeter=0;" edge="1" parent="1" source="HYNrUmtqzF9IMo-W-l-u-20">
          <mxGeometry width="50" height="50" relative="1" as="geometry">
            <mxPoint x="160" y="502" as="sourcePoint" />
            <mxPoint x="100" y="502" as="targetPoint" />
          </mxGeometry>
        </mxCell>
        <mxCell id="HYNrUmtqzF9IMo-W-l-u-31" value="&lt;span style=&quot;font-size: 14px;&quot;&gt;返回code&lt;/span&gt;" style="text;html=1;align=center;verticalAlign=middle;whiteSpace=wrap;rounded=0;" vertex="1" parent="1">
          <mxGeometry x="395" y="478" width="170" height="25" as="geometry" />
        </mxCell>
        <mxCell id="HYNrUmtqzF9IMo-W-l-u-32" value="" style="endArrow=classic;html=1;rounded=0;entryX=0;entryY=0;entryDx=0;entryDy=0;endSize=8;" edge="1" parent="1">
          <mxGeometry width="50" height="50" relative="1" as="geometry">
            <mxPoint x="100" y="544" as="sourcePoint" />
            <mxPoint x="365" y="544" as="targetPoint" />
          </mxGeometry>
        </mxCell>
        <mxCell id="HYNrUmtqzF9IMo-W-l-u-33" value="" style="rounded=1;whiteSpace=wrap;html=1;" vertex="1" parent="1">
          <mxGeometry x="365" y="544" width="30" height="214" as="geometry" />
        </mxCell>
        <mxCell id="HYNrUmtqzF9IMo-W-l-u-36" value="&lt;span style=&quot;font-size: 14px;&quot;&gt;跳转到第三方服务校验code&lt;/span&gt;" style="text;html=1;align=center;verticalAlign=middle;whiteSpace=wrap;rounded=0;" vertex="1" parent="1">
          <mxGeometry x="140" y="519" width="190" height="25" as="geometry" />
        </mxCell>
        <mxCell id="HYNrUmtqzF9IMo-W-l-u-37" value="" style="endArrow=classic;html=1;rounded=0;endSize=8;" edge="1" parent="1">
          <mxGeometry width="50" height="50" relative="1" as="geometry">
            <mxPoint x="395" y="562" as="sourcePoint" />
            <mxPoint x="640" y="562" as="targetPoint" />
          </mxGeometry>
        </mxCell>
        <mxCell id="HYNrUmtqzF9IMo-W-l-u-38" value="&lt;span style=&quot;font-size: 14px;&quot;&gt;获取access_token&lt;/span&gt;" style="text;html=1;align=center;verticalAlign=middle;whiteSpace=wrap;rounded=0;" vertex="1" parent="1">
          <mxGeometry x="440" y="543" width="140" height="20" as="geometry" />
        </mxCell>
        <mxCell id="HYNrUmtqzF9IMo-W-l-u-40" value="" style="endArrow=none;dashed=1;html=1;rounded=0;entryX=0.5;entryY=1;entryDx=0;entryDy=0;strokeWidth=2;" edge="1" parent="1" target="HYNrUmtqzF9IMo-W-l-u-39">
          <mxGeometry width="50" height="50" relative="1" as="geometry">
            <mxPoint x="660" y="830" as="sourcePoint" />
            <mxPoint x="659.5" y="200" as="targetPoint" />
          </mxGeometry>
        </mxCell>
        <mxCell id="HYNrUmtqzF9IMo-W-l-u-39" value="" style="rounded=1;whiteSpace=wrap;html=1;" vertex="1" parent="1">
          <mxGeometry x="645" y="554" width="30" height="74" as="geometry" />
        </mxCell>
        <mxCell id="HYNrUmtqzF9IMo-W-l-u-41" value="" style="endArrow=classic;html=1;rounded=0;exitX=1;exitY=0.25;exitDx=0;exitDy=0;entryX=1.01;entryY=0.702;entryDx=0;entryDy=0;entryPerimeter=0;" edge="1" parent="1" target="HYNrUmtqzF9IMo-W-l-u-39">
          <mxGeometry width="50" height="50" relative="1" as="geometry">
            <mxPoint x="675" y="568" as="sourcePoint" />
            <mxPoint x="675" y="588" as="targetPoint" />
            <Array as="points">
              <mxPoint x="715" y="568" />
              <mxPoint x="715" y="606" />
            </Array>
          </mxGeometry>
        </mxCell>
        <mxCell id="HYNrUmtqzF9IMo-W-l-u-42" value="&lt;font style=&quot;font-size: 14px;&quot;&gt;验证clientId和code生成access_token&lt;/font&gt;" style="text;html=1;align=center;verticalAlign=middle;whiteSpace=wrap;rounded=0;" vertex="1" parent="1">
          <mxGeometry x="716" y="574" width="125" height="25" as="geometry" />
        </mxCell>
        <mxCell id="HYNrUmtqzF9IMo-W-l-u-44" value="" style="endArrow=none;html=1;rounded=0;endSize=8;startArrow=block;startFill=1;" edge="1" parent="1">
          <mxGeometry width="50" height="50" relative="1" as="geometry">
            <mxPoint x="395" y="608" as="sourcePoint" />
            <mxPoint x="640" y="608" as="targetPoint" />
          </mxGeometry>
        </mxCell>
        <mxCell id="HYNrUmtqzF9IMo-W-l-u-45" value="&lt;span style=&quot;font-size: 14px;&quot;&gt;返回access_token&lt;/span&gt;" style="text;html=1;align=center;verticalAlign=middle;whiteSpace=wrap;rounded=0;" vertex="1" parent="1">
          <mxGeometry x="440" y="589" width="140" height="20" as="geometry" />
        </mxCell>
        <mxCell id="HYNrUmtqzF9IMo-W-l-u-46" value="" style="endArrow=classic;html=1;rounded=0;endSize=8;" edge="1" parent="1">
          <mxGeometry width="50" height="50" relative="1" as="geometry">
            <mxPoint x="395" y="667" as="sourcePoint" />
            <mxPoint x="640" y="667" as="targetPoint" />
          </mxGeometry>
        </mxCell>
        <mxCell id="HYNrUmtqzF9IMo-W-l-u-47" value="&lt;span style=&quot;font-size: 14px;&quot;&gt;获取用户信息&lt;/span&gt;" style="text;html=1;align=center;verticalAlign=middle;whiteSpace=wrap;rounded=0;" vertex="1" parent="1">
          <mxGeometry x="440" y="648" width="140" height="20" as="geometry" />
        </mxCell>
        <mxCell id="HYNrUmtqzF9IMo-W-l-u-48" value="" style="rounded=1;whiteSpace=wrap;html=1;" vertex="1" parent="1">
          <mxGeometry x="645" y="668" width="30" height="74" as="geometry" />
        </mxCell>
        <mxCell id="HYNrUmtqzF9IMo-W-l-u-49" value="" style="endArrow=classic;html=1;rounded=0;exitX=1;exitY=0.25;exitDx=0;exitDy=0;entryX=1.01;entryY=0.702;entryDx=0;entryDy=0;entryPerimeter=0;" edge="1" parent="1">
          <mxGeometry width="50" height="50" relative="1" as="geometry">
            <mxPoint x="675" y="678" as="sourcePoint" />
            <mxPoint x="675" y="716" as="targetPoint" />
            <Array as="points">
              <mxPoint x="715" y="678" />
              <mxPoint x="715" y="716" />
            </Array>
          </mxGeometry>
        </mxCell>
        <mxCell id="HYNrUmtqzF9IMo-W-l-u-50" value="&lt;font style=&quot;font-size: 14px;&quot;&gt;验证clientId&lt;/font&gt;&lt;div&gt;&lt;font style=&quot;font-size: 14px;&quot;&gt;验证access_token&lt;/font&gt;&lt;/div&gt;" style="text;html=1;align=center;verticalAlign=middle;whiteSpace=wrap;rounded=0;" vertex="1" parent="1">
          <mxGeometry x="716" y="684" width="125" height="25" as="geometry" />
        </mxCell>
        <mxCell id="HYNrUmtqzF9IMo-W-l-u-51" value="" style="endArrow=none;html=1;rounded=0;endSize=8;startArrow=block;startFill=1;" edge="1" parent="1">
          <mxGeometry width="50" height="50" relative="1" as="geometry">
            <mxPoint x="395" y="728" as="sourcePoint" />
            <mxPoint x="640" y="728" as="targetPoint" />
          </mxGeometry>
        </mxCell>
        <mxCell id="HYNrUmtqzF9IMo-W-l-u-52" value="&lt;span style=&quot;font-size: 14px;&quot;&gt;返回用户信息&lt;/span&gt;" style="text;html=1;align=center;verticalAlign=middle;whiteSpace=wrap;rounded=0;" vertex="1" parent="1">
          <mxGeometry x="440" y="709" width="140" height="20" as="geometry" />
        </mxCell>
        <mxCell id="HYNrUmtqzF9IMo-W-l-u-53" value="" style="endArrow=none;html=1;rounded=0;endSize=8;startArrow=block;startFill=1;" edge="1" parent="1">
          <mxGeometry width="50" height="50" relative="1" as="geometry">
            <mxPoint x="100" y="742" as="sourcePoint" />
            <mxPoint x="360" y="742" as="targetPoint" />
          </mxGeometry>
        </mxCell>
      </root>
    </mxGraphModel>
  </diagram>
</mxfile>
